<?xml version="1.0" encoding="UTF-8" standalone="no"?>
<!-- Created with Inkscape (http://www.inkscape.org/) -->

<svg
   xmlns:dc="http://purl.org/dc/elements/1.1/"
   xmlns:cc="http://creativecommons.org/ns#"
   xmlns:rdf="http://www.w3.org/1999/02/22-rdf-syntax-ns#"
   xmlns:svg="http://www.w3.org/2000/svg"
   xmlns="http://www.w3.org/2000/svg"
   xmlns:sodipodi="http://sodipodi.sourceforge.net/DTD/sodipodi-0.dtd"
   xmlns:inkscape="http://www.inkscape.org/namespaces/inkscape"
   width="407.08035mm"
   height="99.265404mm"
   viewBox="0 0 407.08035 99.265404"
   version="1.1"
   id="svg8"
   inkscape:version="0.92.4 (5da689c313, 2019-01-14)"
   sodipodi:docname="general_scheme.svg">
  <defs
     id="defs2">
    <marker
       inkscape:stockid="Arrow2Send"
       orient="auto"
       refY="0"
       refX="0"
       id="marker1954"
       style="overflow:visible"
       inkscape:isstock="true">
      <path
         id="path1952"
         style="fill:#000000;fill-opacity:1;fill-rule:evenodd;stroke:#000000;stroke-width:0.625;stroke-linejoin:round;stroke-opacity:1"
         d="M 8.7185878,4.0337352 -2.2072895,0.01601326 8.7185884,-4.0017078 c -1.7454984,2.3720609 -1.7354408,5.6174519 -6e-7,8.035443 z"
         transform="matrix(-0.3,0,0,-0.3,0.69,0)"
         inkscape:connector-curvature="0" />
    </marker>
    <marker
       inkscape:isstock="true"
       style="overflow:visible"
       id="marker1720"
       refX="0"
       refY="0"
       orient="auto"
       inkscape:stockid="Arrow2Send"
       inkscape:collect="always">
      <path
         transform="matrix(-0.3,0,0,-0.3,0.69,0)"
         d="M 8.7185878,4.0337352 -2.2072895,0.01601326 8.7185884,-4.0017078 c -1.7454984,2.3720609 -1.7354408,5.6174519 -6e-7,8.035443 z"
         style="fill:#000000;fill-opacity:1;fill-rule:evenodd;stroke:#000000;stroke-width:0.625;stroke-linejoin:round;stroke-opacity:1"
         id="path1718"
         inkscape:connector-curvature="0" />
    </marker>
    <marker
       inkscape:stockid="Arrow2Send"
       orient="auto"
       refY="0"
       refX="0"
       id="Arrow2Send"
       style="overflow:visible"
       inkscape:isstock="true"
       inkscape:collect="always">
      <path
         id="path1043"
         style="fill:#000000;fill-opacity:1;fill-rule:evenodd;stroke:#000000;stroke-width:0.625;stroke-linejoin:round;stroke-opacity:1"
         d="M 8.7185878,4.0337352 -2.2072895,0.01601326 8.7185884,-4.0017078 c -1.7454984,2.3720609 -1.7354408,5.6174519 -6e-7,8.035443 z"
         transform="matrix(-0.3,0,0,-0.3,0.69,0)"
         inkscape:connector-curvature="0" />
    </marker>
    <marker
       inkscape:stockid="Arrow2Sstart"
       orient="auto"
       refY="0"
       refX="0"
       id="Arrow2Sstart"
       style="overflow:visible"
       inkscape:isstock="true">
      <path
         id="path1040"
         style="fill:#000000;fill-opacity:1;fill-rule:evenodd;stroke:#000000;stroke-width:0.625;stroke-linejoin:round;stroke-opacity:1"
         d="M 8.7185878,4.0337352 -2.2072895,0.01601326 8.7185884,-4.0017078 c -1.7454984,2.3720609 -1.7354408,5.6174519 -6e-7,8.035443 z"
         transform="matrix(0.3,0,0,0.3,-0.69,0)"
         inkscape:connector-curvature="0" />
    </marker>
    <marker
       inkscape:isstock="true"
       style="overflow:visible"
       id="marker1398"
       refX="0"
       refY="0"
       orient="auto"
       inkscape:stockid="Arrow2Mend">
      <path
         transform="scale(-0.6)"
         d="M 8.7185878,4.0337352 -2.2072895,0.01601326 8.7185884,-4.0017078 c -1.7454984,2.3720609 -1.7354408,5.6174519 -6e-7,8.035443 z"
         style="fill:#000000;fill-opacity:1;fill-rule:evenodd;stroke:#000000;stroke-width:0.625;stroke-linejoin:round;stroke-opacity:1"
         id="path1396"
         inkscape:connector-curvature="0" />
    </marker>
    <marker
       inkscape:isstock="true"
       style="overflow:visible"
       id="marker1388"
       refX="0"
       refY="0"
       orient="auto"
       inkscape:stockid="Arrow2Mend">
      <path
         transform="scale(-0.6)"
         d="M 8.7185878,4.0337352 -2.2072895,0.01601326 8.7185884,-4.0017078 c -1.7454984,2.3720609 -1.7354408,5.6174519 -6e-7,8.035443 z"
         style="fill:#000000;fill-opacity:1;fill-rule:evenodd;stroke:#000000;stroke-width:0.625;stroke-linejoin:round;stroke-opacity:1"
         id="path1386"
         inkscape:connector-curvature="0" />
    </marker>
    <marker
       inkscape:isstock="true"
       style="overflow:visible"
       id="marker1316"
       refX="0"
       refY="0"
       orient="auto"
       inkscape:stockid="Arrow1Mend">
      <path
         transform="matrix(-0.4,0,0,-0.4,-4,0)"
         style="fill:#000000;fill-opacity:1;fill-rule:evenodd;stroke:#000000;stroke-width:1.00000003pt;stroke-opacity:1"
         d="M 0,0 5,-5 -12.5,0 5,5 Z"
         id="path1314"
         inkscape:connector-curvature="0" />
    </marker>
    <marker
       inkscape:isstock="true"
       style="overflow:visible"
       id="marker1294"
       refX="0"
       refY="0"
       orient="auto"
       inkscape:stockid="Arrow1Mend">
      <path
         transform="matrix(-0.4,0,0,-0.4,-4,0)"
         style="fill:#000000;fill-opacity:1;fill-rule:evenodd;stroke:#000000;stroke-width:1.00000003pt;stroke-opacity:1"
         d="M 0,0 5,-5 -12.5,0 5,5 Z"
         id="path1292"
         inkscape:connector-curvature="0" />
    </marker>
    <radialGradient
       gradientTransform="scale(0.9994504,1.0005499)"
       fy="0.82847679"
       fx="19.992489"
       r="38.36422"
       cy="0.82847679"
       id="a"
       cx="19.992489"
       gradientUnits="userSpaceOnUse">
      <stop
         id="stop922"
         stop-color="#20C6B7"
         offset="0%" />
      <stop
         id="stop924"
         stop-color="#4D9ABF"
         offset="100%" />
    </radialGradient>
  </defs>
  <sodipodi:namedview
     id="base"
     pagecolor="#ffffff"
     bordercolor="#666666"
     borderopacity="1.0"
     inkscape:pageopacity="0.0"
     inkscape:pageshadow="2"
     inkscape:zoom="0.7"
     inkscape:cx="713.71701"
     inkscape:cy="94.214358"
     inkscape:document-units="mm"
     inkscape:current-layer="layer2"
     showgrid="false"
     showborder="false"
     inkscape:window-width="1920"
     inkscape:window-height="1000"
     inkscape:window-x="-11"
     inkscape:window-y="-11"
     inkscape:window-maximized="1" />
  <metadata
     id="metadata5">
    <rdf:RDF>
      <cc:Work
         rdf:about="">
        <dc:format>image/svg+xml</dc:format>
        <dc:type
           rdf:resource="http://purl.org/dc/dcmitype/StillImage" />
        <dc:title></dc:title>
      </cc:Work>
    </rdf:RDF>
  </metadata>
  <g
     inkscape:groupmode="layer"
     id="layer2"
     inkscape:label="Background"
     transform="translate(188.61012,-19.571011)">
    <rect
       style="opacity:0.328;fill:#657a7a;fill-opacity:0.67755103;stroke:none;stroke-width:2.0795083;stroke-linecap:round;stroke-linejoin:round;stroke-miterlimit:4;stroke-dasharray:none;stroke-opacity:1;paint-order:stroke fill markers"
       id="rect975"
       width="155.34821"
       height="82.262009"
       x="-188.61012"
       y="36.574406"
       ry="6.66471"
       rx="0" />
    <rect
       style="opacity:0.328;fill:#bd2266;fill-opacity:0.67755103;stroke:none;stroke-width:2.45965195;stroke-linecap:round;stroke-linejoin:round;stroke-miterlimit:4;stroke-dasharray:none;stroke-opacity:1;paint-order:stroke fill markers"
       id="rect975-1"
       width="217.3363"
       height="82.262009"
       x="1.1339136"
       y="36.574406"
       ry="6.66471"
       rx="0" />
  </g>
  <g
     inkscape:label="Layer 1"
     inkscape:groupmode="layer"
     id="layer1"
     transform="translate(188.61012,-19.571011)">
    <text
       xml:space="preserve"
       style="font-style:normal;font-weight:normal;font-size:10.58333302px;line-height:1.25;font-family:sans-serif;letter-spacing:0px;word-spacing:0px;fill:#000000;fill-opacity:1;stroke:none;stroke-width:0.26458332"
       x="94.008675"
       y="27.637701"
       id="text817"><tspan
         sodipodi:role="line"
         id="tspan815"
         x="94.008675"
         y="27.637701"
         style="stroke-width:0.26458332">Online</tspan></text>
    <g
       style="fill-rule:evenodd;stroke-width:27"
       id="g842"
       transform="matrix(0.03293637,0,0,0.03293637,-173.92565,47.704426)">
      <path
         id="path819"
         d="m 1345.211,24.704 112.262,64.305 a 43,43 0 0 1 21.627,37.312 v 142.237 a 40,40 0 0 1 -20.702,35.037 l -120.886,66.584 a 42,42 0 0 1 -41.216,-0.389 l -106.242,-61.155 a 57,57 0 0 1 -28.564,-49.4 V 138.71 a 64,64 0 0 1 31.172,-54.939 l 98.01,-58.564 a 54,54 0 0 1 54.54,-0.503 z"
         inkscape:connector-curvature="0"
         style="fill:#ebb951;stroke:#fcd804" />
      <path
         id="path821"
         d="m 958.07,22.82 117.31,66.78 a 41,41 0 0 1 20.72,35.64 v 139.5 A 45,45 0 0 1 1073,304.06 L 955.68,369.4 a 44,44 0 0 1 -43.54,-0.41 l -105.82,-61.6 a 56,56 0 0 1 -27.83,-48.4 V 140.07 a 68,68 0 0 1 33.23,-58.44 l 98.06,-58.35 a 48,48 0 0 1 48.3,-0.46 z"
         inkscape:connector-curvature="0"
         style="fill:#33ba91;stroke:#00a88a" />
      <path
         id="path823"
         d="m 575.26,20.97 117.23,68.9 a 40,40 0 0 1 19.73,34.27 l 0.73,138.67 a 48,48 0 0 1 -24.64,42.2 L 573.18,369.12 A 45,45 0 0 1 528.65,368.7 L 422.82,307.1 A 55,55 0 0 1 395.49,259.57 V 136.52 a 63,63 0 0 1 29.87,-53.59 l 99.3,-61.4 a 49,49 0 0 1 50.6,-0.56 z"
         inkscape:connector-curvature="0"
         style="fill:#0594cb;stroke:#0083c0" />
      <path
         id="path825"
         d="m 195.81,24.13 114.41,66.54 a 44,44 0 0 1 21.88,38.04 v 136.43 a 48,48 0 0 1 -24.45,41.82 L 194.1,370.9 a 49,49 0 0 1 -48.48,-0.23 L 41.05,310.48 A 53,53 0 0 1 14.49,264.55 V 135.08 a 55,55 0 0 1 26.1,-46.8 l 102.8,-63.46 a 51,51 0 0 1 52.42,-0.69 z"
         inkscape:connector-curvature="0"
         style="fill:#ff4088;stroke:#c9177e" />
      <path
         id="path827"
         d="m 1320.72,89.15 c 58.79,0 106.52,47.73 106.52,106.51 0,58.8 -47.73,106.52 -106.52,106.52 -58.78,0 -106.52,-47.73 -106.52,-106.52 0,-58.78 47.74,-106.51 106.52,-106.51 z m 0,39.57 c 36.95,0 66.94,30 66.94,66.94 a 66.97,66.97 0 0 1 -66.94,66.94 c -36.95,0 -66.94,-29.99 -66.94,-66.94 a 66.97,66.97 0 0 1 66.93,-66.94 z m -283.8,65.31 c 0,47.18 -8.94,60.93 -26.81,80.58 -17.87,19.65 -41.57,27.57 -71.1,27.57 -27,0 -48.75,-9.58 -67.61,-26.23 -20.88,-18.45 -36.08,-47.04 -36.08,-78.95 0,-31.37 11.72,-58.48 32.49,-78.67 18.22,-17.67 45.34,-29.18 73.3,-29.18 33.77,0 68.83,15.98 90.44,47.53 L 999.82,163.5 C 986.37,138.47 966.88,130.04 939,129.24 c -30.83,-0.88 -64.77,28.53 -62.25,67.75 1.4,21.94 11.65,59.65 60.96,66.57 25.9,3.63 55.36,-24.02 55.36,-39.04 H 944.4 v -37.5 h 92.5 V 194 Z M 474.32,99.38 h 42.29 v 112.17 c 0,17.8 0.49,29.33 1.47,34.61 1.69,8.48 4.81,14.37 11.17,19.5 6.37,5.13 13.8,6.59 24.84,6.59 11.2,0 14.96,-1.74 20.66,-6.6 5.69,-4.85 9.12,-9.46 10.28,-16.53 1.15,-7.07 3.07,-18.8 3.07,-35.18 V 99.38 h 42.28 v 108.78 c 0,24.86 -1.07,42.43 -3.21,52.69 -2.14,10.27 -6.08,18.93 -11.82,26 -5.74,7.06 -13.42,12.69 -23.03,16.88 -9.62,4.19 -22.16,6.28 -37.65,6.28 -18.7,0 -32.87,-2.28 -42.52,-6.85 -9.66,-4.57 -17.3,-10.5 -22.9,-17.8 -5.61,-7.3 -9.3,-14.95 -11.08,-22.96 -2.58,-11.86 -3.88,-29.38 -3.88,-52.55 V 99.38 Z M 93.91,299.92 V 92.7 h 43.35 v 75.48 h 71.92 V 92.7 h 43.48 v 207.22 h -43.48 v -90.61 h -71.92 v 90.61 z"
         inkscape:connector-curvature="0"
         style="fill:#ffffff" />
    </g>
    <text
       xml:space="preserve"
       style="font-style:normal;font-weight:normal;font-size:10.58333302px;line-height:1.25;font-family:sans-serif;letter-spacing:0px;word-spacing:0px;fill:#000000;fill-opacity:1;stroke:none;stroke-width:0.26458332"
       x="-177.6488"
       y="100.07441"
       id="text846"><tspan
         sodipodi:role="line"
         id="tspan844"
         x="-177.6488"
         y="100.07441"
         style="font-style:normal;font-variant:normal;font-weight:bold;font-stretch:normal;font-size:10.58333302px;font-family:Montserrat;-inkscape-font-specification:'Montserrat, Bold';font-variant-ligatures:normal;font-variant-caps:normal;font-variant-numeric:normal;font-feature-settings:normal;text-align:start;writing-mode:lr-tb;text-anchor:start;fill:#00d1b2;fill-opacity:1;stroke-width:0.26458332">Academic</tspan></text>
    <g
       id="g856"
       transform="matrix(0.17838852,0,0,0.17838852,-86.760524,66.092688)">
      <path
         id="path836"
         d="m 163.59,38.806 c -5.985,0 -10.442,2.9389 -10.442,10.012 0,5.3291 2.9375,9.0284 10.12,9.0284 6.0875,0 10.222,-3.5869 10.222,-9.2485 0,-6.416 -3.7,-9.7915 -9.9,-9.7915 z m -11.97,49.94 c -1.4162,1.7382 -2.8275,3.585 -2.8275,5.7646 0,4.3482 5.545,5.6568 13.162,5.6568 6.31,0 14.905,-0.44188 14.905,-6.3085 0,-3.4869 -4.135,-3.7028 -9.36,-4.0304 l -15.88,-1.0825 z m 32.201,-49.611 c 1.955,2.5029 4.025,5.9848 4.025,10.989 0,12.075 -9.465,19.146 -23.169,19.146 -3.485,0 -6.64,-0.43412 -8.5962,-0.97712 l -3.5912,5.7648 10.66,0.65125 c 18.822,1.1992 29.915,1.7442 29.915,16.208 0,12.514 -10.985,19.581 -29.915,19.581 -19.69,0 -27.196,-5.0049 -27.196,-13.598 0,-4.8975 2.1762,-7.5025 5.9838,-11.098 -3.5912,-1.518 -4.7862,-4.2362 -4.7862,-7.1748 0,-2.395 1.195,-4.5702 3.1562,-6.6386 1.9575,-2.065 4.1325,-4.1348 6.7438,-6.5274 -5.33,-2.6104 -9.3562,-8.2676 -9.3562,-16.319 0,-12.509 8.2688,-21.1 24.91,-21.1 4.6788,0 7.5088,0.43062 10.011,1.0874 h 21.215 v 9.2446 l -10.01,0.76175"
         inkscape:connector-curvature="0"
         style="fill:#413000" />
      <path
         id="path838"
         d="m 212.98,19.366 c -6.2025,0 -9.7912,-3.5932 -9.7912,-9.7964 0,-6.1954 3.5888,-9.5704 9.7912,-9.5704 6.31,0 9.9,3.375 9.9,9.5704 0,6.2031 -3.59,9.7964 -9.9,9.7964 z m -14.036,65.376 v -8.5899 l 5.55,-0.75925 c 1.5238,-0.22075 1.74,-0.5445 1.74,-2.1802 v -31.983 c 0,-1.1942 -0.325,-1.959 -1.4162,-2.2828 l -5.8738,-2.0688 1.1962,-8.8086 h 22.521 v 45.144 c 0,1.7438 0.105,1.9595 1.7412,2.1802 l 5.5488,0.75925 v 8.5899 h -31.008"
         inkscape:connector-curvature="0"
         style="fill:#413000" />
      <path
         id="path840"
         d="m 272.97,80.526 c -4.68,2.2818 -11.532,4.3491 -17.736,4.3491 -12.945,0 -17.839,-5.2168 -17.839,-17.515 v -28.5 c 0,-0.65138 0,-1.0884 -0.87375,-1.0884 h -7.6138 v -9.6816 c 9.5762,-1.0908 13.381,-5.8784 14.578,-17.736 h 10.336 v 15.453 c 0,0.75875 0,1.0874 0.87125,1.0874 h 15.338 v 10.877 h -16.209 v 25.999 c 0,6.4194 1.525,8.9194 7.3962,8.9194 3.05,0 6.2012,-0.75925 8.8125,-1.7392 l 2.94,9.5761"
         inkscape:connector-curvature="0"
         style="fill:#413000" />
      <path
         id="path842"
         d="M 111.78,51.977 62.035,2.2381 c -2.8622,-2.8648 -7.5082,-2.8648 -10.374,0 l -10.329,10.33 13.102,13.102 c 3.0459,-1.0284 6.5371,-0.33888 8.9639,2.0884 2.4394,2.4424 3.124,5.9634 2.0698,9.0195 l 12.628,12.628 c 3.0551,-1.0528 6.58,-0.37262 9.0195,2.0712 3.4106,3.4096 3.4106,8.9345 0,12.345 -3.4111,3.4116 -8.936,3.4116 -12.349,0 -2.5645,-2.5665 -3.1988,-6.3345 -1.8999,-9.4942 l -11.777,-11.777 -0.001,30.991 c 0.8315,0.41162 1.6162,0.961 2.3091,1.6509 3.4096,3.4092 3.4096,8.9331 0,12.348 -3.4106,3.4091 -8.938,3.4091 -12.345,0 -3.4101,-3.4146 -3.4101,-8.9385 0,-12.348 0.84275,-0.84125 1.8179,-1.478 2.8584,-1.9048 v -31.279 c -1.041,-0.425 -2.015,-1.057 -2.859,-1.905 -2.583,-2.581 -3.2051,-6.372 -1.8804,-9.5439 l -12.916,-12.918 -34.106,34.105 c -2.8657,2.867 -2.8657,7.513 0,10.378 l 49.742,49.739 c 2.8638,2.8648 7.5082,2.8648 10.376,0 l 49.512,-49.504 c 2.8648,-2.8662 2.8648,-7.5136 0,-10.379"
         inkscape:connector-curvature="0"
         style="fill:#f05133" />
    </g>
    <path
       style="fill:none;stroke:#000000;stroke-width:1.5;stroke-linecap:butt;stroke-linejoin:miter;stroke-miterlimit:4;stroke-dasharray:none;stroke-opacity:1;marker-end:url(#Arrow2Send)"
       d="m -118.30655,76.261904 h 24.190475"
       id="path858-8"
       inkscape:connector-curvature="0" />
    <g
       id="g877"
       transform="matrix(0.13110597,0,0,0.13110597,4.8380962,65.465119)">
      <path
         id="path875"
         d="M 98.69616,59.312447 H 55.635496 c -1.110768,0 -2.0124,0.902699 -2.0124,2.013467 v 21.053374 c 0,1.110768 0.901632,2.014534 2.0124,2.014534 h 16.798098 v 26.156928 c 0,0 -3.771917,1.28576 -14.199904,1.28576 -12.302742,0 -29.489235,-4.49535 -29.489235,-42.287072 0,-37.800255 17.896061,-42.773635 34.69736,-42.773635 14.543484,0 20.809027,2.560848 24.795414,3.794323 1.252681,0.384128 2.411465,-0.863219 2.411465,-1.975054 L 95.452419,8.2534006 C 95.452419,7.7337618 95.27636,7.107421 94.683097,6.68168 93.064428,5.5271642 83.187022,0 58.23369,0 29.487101,0 0,12.230185 0,71.022993 c 0,58.794937 33.760517,67.556247 62.209407,67.556247 23.555536,0 37.845073,-10.06627 37.845073,-10.06627 0.58899,-0.32544 0.65301,-1.14811 0.65301,-1.52584 V 61.325914 c 0,-1.110768 -0.900562,-2.013467 -2.01133,-2.013467 z M 320.4955,7.3592378 c 0,-1.1203712 -0.88776,-2.0241372 -1.99853,-2.0241372 h -24.2459 c -1.10757,0 -2.00813,0.903766 -2.00813,2.0241372 0,0.00534 0.006,46.8560542 0.006,46.8560542 H 254.45656 V 7.3592378 c 0,-1.1203712 -0.89203,-2.0241372 -2.00067,-2.0241372 h -24.24483 c -1.1033,0 -2.0028,0.903766 -2.0028,2.0241372 V 134.23113 c 0,1.1193 0.8995,2.03054 2.0028,2.03054 h 24.24483 c 1.10864,0 2.00067,-0.91124 2.00067,-2.03054 V 79.963555 h 37.79278 c 0,0 -0.0661,54.263305 -0.0661,54.267575 0,1.1193 0.89949,2.03054 2.00813,2.03054 h 24.30352 c 1.11076,0 1.99852,-0.91124 2.00066,-2.03054 z M 144.37102,24.321656 c 0,-8.730358 -6.99965,-15.7854951 -15.63504,-15.7854951 -8.62686,0 -15.63185,7.0551371 -15.63185,15.7854951 0,8.720756 7.00499,15.795099 15.63185,15.795099 8.63539,0 15.63504,-7.074343 15.63504,-15.795099 z m -1.92383,83.212634 V 48.969821 c 0,-1.111835 -0.89737,-2.020936 -2.006,-2.020936 h -24.16907 c -1.10864,0 -2.10097,1.143846 -2.10097,2.255681 v 83.905124 c 0,2.46589 1.53651,3.19893 3.52544,3.19893 h 21.77574 c 2.38906,0 2.97486,-1.17266 2.97486,-3.23841 z M 413.16193,46.948885 h -24.06024 c -1.1033,0 -2.00173,0.909101 -2.00173,2.028406 V 111.1867 c 0,0 -6.11189,4.47188 -14.78783,4.47188 -8.67487,0 -10.9775,-3.93624 -10.9775,-12.43079 V 48.977291 c 0,-1.119305 -0.8963,-2.028406 -2.00067,-2.028406 h -24.41875 c -1.10223,0 -2.00493,0.909101 -2.00493,2.028406 v 58.358529 c 0,25.23076 14.06226,31.40347 33.40733,31.40347 15.86979,0 28.6655,-8.7677 28.6655,-8.7677 0,0 0.60926,4.62019 0.88455,5.16864 0.27636,0.54632 0.99446,1.09797 1.77019,1.09797 l 15.53475,-0.0683 c 1.10223,0 2.00493,-0.91124 2.00493,-2.02521 l -0.007,-85.167409 c 0,-1.119305 -0.8995,-2.028406 -2.00813,-2.028406 z m 55.43489,68.757705 c -8.34516,-0.25395 -14.0057,-4.0408 -14.0057,-4.0408 V 71.488214 c 0,0 5.58478,-3.423001 12.43612,-4.03547 8.6642,-0.775724 17.01256,1.841676 17.01256,22.509856 0,21.79495 -3.76764,26.09611 -15.44298,25.74399 z m 9.49008,-71.482874 c -13.66533,0 -22.96014,6.096953 -22.96014,6.096953 V 7.3592378 c 0,-1.1203712 -0.89523,-2.0241372 -2.00066,-2.0241372 h -24.31419 c -1.10543,0 -2.00386,0.903766 -2.00386,2.0241372 V 134.23113 c 0,1.1193 0.89843,2.03054 2.00706,2.03054 h 16.86959 c 0.75972,0 1.33484,-0.3916 1.75951,-1.07769 0.41935,-0.68183 1.02435,-5.84941 1.02435,-5.84941 0,0 9.94249,9.42179 28.76366,9.42179 C 499.32807,138.75636 512,127.54838 512,88.441029 512,49.333675 491.76183,44.223716 478.0869,44.223716 Z m -265.85767,2.507497 h -18.18735 c 0,0 -0.0277,-24.021824 -0.0277,-24.027159 0,-0.909101 -0.46842,-1.363652 -1.51943,-1.363652 H 167.71 c -0.96352,0 -1.48102,0.423607 -1.48102,1.349781 v 24.829558 c 0,0 -12.42011,2.998326 -13.25986,3.24054 -0.83654,0.242214 -1.45221,1.013669 -1.45221,1.933441 v 15.603035 c 0,1.122505 0.89629,2.027338 2.00493,2.027338 h 12.70714 v 37.535635 c 0,27.88017 19.55635,30.61921 32.75325,30.61921 6.02973,0 13.24279,-1.93664 14.43358,-2.37626 0.72024,-0.26462 1.13851,-1.01046 1.13851,-1.81927 l 0.0203,-17.16408 c 0,-1.11931 -0.94538,-2.0252 -2.01026,-2.0252 -1.05955,0 -3.77085,0.43107 -6.56217,0.43107 -8.9331,0 -11.96023,-4.15391 -11.96023,-9.53062 0,-5.37245 -10e-4,-35.670485 -10e-4,-35.670485 h 18.18842 c 1.10864,0 2.006,-0.904833 2.006,-2.027338 V 48.753216 c 0,-1.119304 -0.89736,-2.022003 -2.006,-2.022003 z"
         inkscape:connector-curvature="0"
         style="fill:#11110f" />
    </g>
    <text
       xml:space="preserve"
       style="font-style:normal;font-weight:normal;font-size:10.58333302px;line-height:1.25;font-family:sans-serif;letter-spacing:0px;word-spacing:0px;fill:#000000;fill-opacity:1;stroke:none;stroke-width:0.26458332"
       x="-171.16341"
       y="80.202232"
       id="text817-3"><tspan
         sodipodi:role="line"
         id="tspan815-1"
         x="-171.16341"
         y="80.202232"
         style="stroke-width:0.26458332">Local PC</tspan></text>
    <g
       id="g973"
       transform="translate(-2.6458333,2.2678571)">
      <path
         id="path952"
         d="m 154.59118,67.160681 0.0823,1.47156 c 0.93932,-1.138153 2.17254,-1.707229 3.699,-1.707229 2.6452,0 3.99157,1.51843 4.03843,4.555289 v 8.414298 h -2.85208 v -8.249597 c 0,-0.808089 -0.17406,-1.405959 -0.5222,-1.794938 -0.34814,-0.388308 -0.91789,-0.582466 -1.70858,-0.582466 -1.15086,0 -2.00849,0.522215 -2.57088,1.5653 v 9.061701 h -2.85342 V 67.160681 h 2.68872 z m 16.3211,12.969579 c -1.80765,0 -3.27385,-0.570412 -4.39661,-1.711916 -1.12343,-1.141495 -1.68514,-2.661933 -1.68514,-4.56064 v -0.352827 c 0,-1.270716 0.24438,-2.406861 0.73378,-3.407091 0.48873,-1.000238 1.17631,-1.778869 2.06072,-2.336564 0.88442,-0.556359 1.87059,-0.834866 2.9592,-0.834866 1.72932,0 3.06631,0.553008 4.00897,1.659023 0.944,1.106687 1.41533,2.671307 1.41533,4.695883 v 1.153548 h -8.30181 c 0.087,1.051116 0.43651,1.882639 1.05111,2.494562 0.6146,0.611922 1.38788,0.917888 2.31915,0.917888 1.30687,0 2.37138,-0.528909 3.19352,-1.588726 l 1.53785,1.471568 c -0.50882,0.760546 -1.1877,1.35105 -2.03662,1.770831 -0.8496,0.419772 -1.8023,0.629327 -2.85877,0.629327 z m -0.3401,-10.908851 c -0.78332,0 -1.41466,0.274492 -1.89603,0.823485 -0.48204,0.548992 -0.78867,1.314225 -0.9219,2.295053 h 5.43635 v -0.212234 c -0.063,-0.957393 -0.31734,-1.680451 -0.76323,-2.171192 -0.44656,-0.490078 -1.06451,-0.735112 -1.85519,-0.735112 z m 11.22419,-5.155167 v 3.095111 h 2.24283 v 2.118299 h -2.24283 v 7.108094 c 0,0.486062 0.0964,0.836882 0.28788,1.053131 0.19148,0.215577 0.53427,0.32337 1.02769,0.32337 a 4.385234,4.385234 0 0 0 0.99756,-0.117839 v 2.212702 c -0.64942,0.180769 -1.2754,0.270477 -1.87862,0.270477 -2.19129,0 -3.28726,-1.211791 -3.28726,-3.636056 V 69.27898 h -2.09152 v -2.118299 h 2.09019 v -3.095102 h 2.85274 z m 7.45624,15.82902 h -2.85342 V 61.818731 h 2.85342 z m 6.14066,0 h -2.85341 V 67.161353 h 2.85341 z m -3.02949,-16.041245 c 0,-0.438529 0.13858,-0.80341 0.41643,-1.093971 0.27851,-0.289897 0.67552,-0.435177 1.19171,-0.435177 0.51686,0 0.91588,0.14528 1.19841,0.435177 0.28119,0.290561 0.42178,0.655442 0.42178,1.094634 0,0.431163 -0.14059,0.790012 -0.42178,1.076558 -0.28253,0.286545 -0.68155,0.429818 -1.19841,0.429818 -0.51619,0 -0.9132,-0.143273 -1.19171,-0.429818 -0.27785,-0.285874 -0.41643,-0.645395 -0.41643,-1.076558 z m 7.13889,16.041245 V 69.27898 h -1.93754 v -2.118299 h 1.93754 v -1.16493 c 0,-1.412653 0.39099,-2.5026 1.17363,-3.271857 0.78332,-0.768584 1.87863,-1.152877 3.28726,-1.152877 0.50146,0 1.03371,0.07031 1.59743,0.211562 l -0.0703,2.236129 a 5.607074,5.607074 0 0 0 -1.09195,-0.09373 c -1.36244,0 -2.04332,0.701639 -2.04332,2.106254 v 1.12945 h 2.58293 v 2.118299 h -2.58293 V 79.8946 h -2.85275 z m 11.96399,-4.095332 2.58293,-8.638577 h 3.04088 l -5.04804,14.664082 c -0.77528,2.141742 -2.09018,3.212941 -3.94537,3.212941 -0.41509,0 -0.87303,-0.07101 -1.37381,-0.212234 v -2.212703 l 0.54028,0.03546 c 0.71971,0 1.26201,-0.131228 1.62622,-0.394338 0.36354,-0.262447 0.65143,-0.703647 0.86299,-1.323608 l 0.4104,-1.094634 -4.46155,-12.674994 h 3.07635 z"
         inkscape:connector-curvature="0"
         style="fill:#0e1e25;fill-rule:evenodd;stroke-width:0.66950142" />
      <path
         style="fill:#1cc0c3;fill-opacity:1;fill-rule:nonzero;stroke-width:0.66950142"
         id="path954"
         d="m 137.53028,67.935297 -0.009,-0.0044 c -0.005,-0.0018 -0.0107,-0.0044 -0.0154,-0.0088 a 0.07364515,0.07364515 0 0 1 -0.0188,-0.06226 l 0.51752,-3.164064 2.42694,2.427608 -2.52401,1.073878 a 0.05556862,0.05556862 0 0 1 -0.0221,0.0044 h -0.0101 c -0.004,-0.0018 -0.007,-0.0044 -0.0134,-0.01141 a 1.1488643,1.1488643 0 0 0 -0.33141,-0.25508 z m 3.52024,-0.192823 2.59498,2.594988 c 0.53895,0.539618 0.80876,0.80876 0.90718,1.120748 0.0148,0.04616 0.0268,0.09239 0.0362,0.139921 l -6.20159,-2.626452 a 0.487397,0.487397 0 0 0 -0.0101,-0.0044 c -0.0248,-0.01008 -0.0536,-0.0214 -0.0536,-0.04687 0,-0.02547 0.0294,-0.0375 0.0542,-0.04749 l 0.008,-0.0035 z m 3.43253,4.688525 c -0.1339,0.251729 -0.395,0.512832 -0.83688,0.955376 l -2.92572,2.925052 -3.78402,-0.788005 -0.0201,-0.0044 c -0.0335,-0.0053 -0.069,-0.01141 -0.069,-0.04148 a 1.1421694,1.1421694 0 0 0 -0.43852,-0.798714 c -0.0154,-0.01539 -0.0114,-0.03953 -0.007,-0.06155 0,-0.0035 0,-0.0071 8.8e-4,-0.0094 l 0.71169,-4.36917 0.003,-0.01468 c 0.004,-0.03343 0.0101,-0.07234 0.0401,-0.07234 a 1.1582374,1.1582374 0 0 0 0.77661,-0.445224 c 0.006,-0.0071 0.0101,-0.01406 0.018,-0.01804 0.0214,-0.01008 0.0469,0 0.069,0.0094 l 6.46069,2.73291 z m -4.43544,4.553273 -4.81105,4.811042 0.82349,-5.061436 0.002,-0.0071 c 6.7e-4,-0.0071 0.002,-0.01335 0.004,-0.01946 0.007,-0.0161 0.0241,-0.02273 0.0409,-0.02945 l 0.008,-0.0035 a 1.2385775,1.2385775 0 0 0 0.46531,-0.346133 c 0.0161,-0.01875 0.0355,-0.03679 0.0602,-0.04015 a 0.06025512,0.06025512 0 0 1 0.0195,0 l 3.38768,0.69628 z m -5.82935,5.829348 -0.5423,0.542298 -5.99538,-8.664683 a 0.28386858,0.28386858 0 0 0 -0.007,-0.0094 c -0.009,-0.01273 -0.0195,-0.02547 -0.0174,-0.04015 0,-0.0107 0.007,-0.02008 0.0148,-0.02812 l 0.007,-0.0088 c 0.018,-0.02679 0.0334,-0.05359 0.0502,-0.08233 l 0.0134,-0.02344 0.002,-0.0018 c 0.009,-0.01609 0.018,-0.03148 0.0341,-0.04015 0.0141,-0.0071 0.0334,-0.0044 0.0489,-6.73e-4 l 6.64212,1.369798 a 0.10979823,0.10979823 0 0 1 0.0508,0.02211 c 0.009,0.0088 0.0107,0.01804 0.0127,0.02883 a 1.176314,1.176314 0 0 0 0.68825,0.78666 c 0.0187,0.0094 0.0107,0.03016 0.002,0.05227 a 0.15934133,0.15934133 0 0 0 -0.0101,0.03016 c -0.0837,0.508817 -0.80139,4.886017 -0.9942,6.067688 z m -1.1328,1.13213 c -0.39969,0.395673 -0.63536,0.605228 -0.90182,0.689586 a 1.3390027,1.3390027 0 0 1 -0.80742,0 c -0.31199,-0.09909 -0.58179,-0.368224 -1.12074,-0.907843 l -6.02083,-6.020826 1.57266,-2.438998 c 0.007,-0.01203 0.0148,-0.02273 0.0268,-0.03148 0.0167,-0.01203 0.0409,-0.0071 0.0609,0 a 1.6295663,1.6295663 0 0 0 1.09664,-0.05554 c 0.018,-0.0071 0.0362,-0.01141 0.0502,0.0018 a 0.12720526,0.12720526 0 0 1 0.0188,0.0214 l 6.02484,8.743018 z m -9.43126,-6.819541 -1.38119,-1.381179 2.72755,-1.163595 a 0.05623812,0.05623812 0 0 1 0.0221,-0.0044 c 0.0227,0 0.0362,0.02273 0.0482,0.04351 a 1.948249,1.948249 0 0 0 0.087,0.123189 l 0.009,0.0107 c 0.008,0.01141 0.003,0.02273 -0.005,0.03352 l -1.50637,2.338572 z m -1.99244,-1.992439 -1.7474,-1.747395 c -0.29726,-0.297264 -0.51284,-0.512841 -0.66281,-0.698288 l 5.31317,1.101991 a 0.56238116,0.56238116 0 0 0 0.0201,0.0035 c 0.0328,0.0053 0.069,0.01141 0.069,0.04218 0,0.03352 -0.0395,0.0489 -0.073,0.06155 l -0.0154,0.0071 z m -2.7155,-3.34416 a 1.3390027,1.3390027 0 0 1 0.0602,-0.3314 c 0.0991,-0.311988 0.36823,-0.58113 0.90785,-1.120748 l 2.23615,-2.236129 a 1456.517,1456.517 0 0 0 3.09711,4.476954 c 0.018,0.02405 0.0381,0.05085 0.0174,0.07092 -0.0977,0.107784 -0.1955,0.225623 -0.26446,0.353491 a 0.10712022,0.10712022 0 0 1 -0.0335,0.04147 c -0.009,0.0053 -0.018,0.0035 -0.0281,0.0018 h -8.8e-4 l -5.99137,-1.256655 z m 3.80276,-4.286811 3.0054,-3.006739 c 0.28319,0.123862 1.31222,0.558367 2.23145,0.946683 0.69628,0.294575 1.33097,0.562382 1.53047,0.64941 0.0201,0.008 0.0381,0.01609 0.0469,0.03617 0.005,0.01203 0.003,0.02742 0,0.04015 a 1.3410112,1.3410112 0 0 0 0.35015,1.223846 c 0.0201,0.02007 0,0.0489 -0.0174,0.07367 l -0.009,0.01406 -3.05292,4.728683 c -0.008,0.01335 -0.0154,0.02476 -0.0287,0.03343 -0.0161,0.01008 -0.0388,0.0053 -0.0576,6.72e-4 a 1.5224461,1.5224461 0 0 0 -0.36355,-0.04952 c -0.10979,0 -0.22897,0.02007 -0.34948,0.04218 h -6.7e-4 c -0.0134,0.0018 -0.0255,0.0044 -0.0362,-0.0035 a 0.14059529,0.14059529 0 0 1 -0.0302,-0.03414 l -3.21897,-4.695211 z m 3.61398,-3.613974 3.89248,-3.892482 c 0.53895,-0.538946 0.80875,-0.808751 1.12074,-0.90717 a 1.3390027,1.3390027 0 0 1 0.80742,0 c 0.31198,0.09842 0.5818,0.368224 1.12074,0.90717 l 0.84357,0.843577 -2.76838,4.287483 a 0.10377271,0.10377271 0 0 1 -0.0274,0.0321 c -0.0167,0.01141 -0.0402,0.0071 -0.0602,0 a 1.4039443,1.4039443 0 0 0 -1.28545,0.247714 c -0.018,0.01875 -0.0448,0.008 -0.0676,-0.0018 -0.36153,-0.157334 -3.17344,-1.345699 -3.5758,-1.516422 z m 8.37278,-2.461089 2.55615,2.556156 -0.61593,3.814827 v 0.01 a 0.09038268,0.09038268 0 0 1 -0.005,0.02547 c -0.007,0.01335 -0.0201,0.01609 -0.0334,0.02007 a 1.2251875,1.2251875 0 0 0 -0.36689,0.182777 0.10310321,0.10310321 0 0 0 -0.0134,0.01141 c -0.007,0.008 -0.0148,0.01539 -0.0268,0.01671 a 0.07632316,0.07632316 0 0 1 -0.0287,-0.0044 l -3.89516,-1.655008 -0.007,-0.0035 c -0.0248,-0.01 -0.0542,-0.02211 -0.0542,-0.04749 a 1.471564,1.471564 0 0 0 -0.20755,-0.612595 c -0.0188,-0.03078 -0.0395,-0.06297 -0.0234,-0.0944 z m -2.63248,5.761731 3.65146,1.546551 c 0.0201,0.0094 0.0422,0.01804 0.0508,0.03882 a 0.07096715,0.07096715 0 0 1 0,0.03812 c -0.0107,0.05359 -0.0201,0.114487 -0.0201,0.176082 v 0.102433 c 0,0.02547 -0.0261,0.03617 -0.0502,0.04616 l -0.007,0.0027 c -0.57845,0.247051 -8.12105,3.463335 -8.13244,3.463335 -0.0114,0 -0.0234,0 -0.0348,-0.01141 -0.0201,-0.02008 0,-0.0482 0.018,-0.07367 a 0.50882105,0.50882105 0 0 0 0.009,-0.01335 l 3.0007,-4.646341 0.005,-0.008 c 0.0174,-0.02812 0.0375,-0.05961 0.0696,-0.05961 l 0.0301,0.0044 c 0.0683,0.0094 0.12855,0.01804 0.18947,0.01804 0.45527,0 0.87705,-0.221608 1.13146,-0.600541 a 0.10712022,0.10712022 0 0 1 0.0227,-0.0268 c 0.018,-0.01335 0.0448,-0.0071 0.0656,0.0027 z m -4.1817,6.149374 8.22147,-3.506181 c 0,0 0.012,0 0.0234,0.01141 0.0448,0.04484 0.083,0.07499 0.11983,0.103106 l 0.018,0.01141 c 0.0167,0.0094 0.0335,0.02007 0.0349,0.0375 0,0.0071 0,0.0107 -0.002,0.01671 l -0.70431,4.326315 -0.003,0.01742 c -0.004,0.03343 -0.009,0.07163 -0.0409,0.07163 a 1.1575679,1.1575679 0 0 0 -0.91923,0.567069 l -0.004,0.0053 c -0.009,0.01539 -0.018,0.03016 -0.0334,0.03811 -0.0141,0.0071 -0.0321,0.0044 -0.0469,6.72e-4 l -6.55643,-1.352394 c -0.007,-0.0018 -0.10176,-0.347477 -0.10913,-0.34814 z"
         inkscape:connector-curvature="0" />
    </g>
    <text
       xml:space="preserve"
       style="font-style:normal;font-weight:normal;font-size:10.58333302px;line-height:1.25;font-family:sans-serif;letter-spacing:0px;word-spacing:0px;fill:#000000;fill-opacity:1;stroke:none;stroke-width:0.26458332"
       x="-127.71497"
       y="27.66354"
       id="text817-5"><tspan
         sodipodi:role="line"
         id="tspan815-6"
         x="-127.71497"
         y="27.66354"
         style="stroke-width:0.26458332">Offline</tspan></text>
    <path
       inkscape:connector-curvature="0"
       id="path1716"
       d="M -30.99405,76.261904 H -6.803575"
       style="fill:none;stroke:#000000;stroke-width:1.5;stroke-linecap:butt;stroke-linejoin:miter;stroke-miterlimit:4;stroke-dasharray:none;stroke-opacity:1;marker-end:url(#marker1720)" />
    <path
       style="fill:none;stroke:#000000;stroke-width:1.5;stroke-linecap:butt;stroke-linejoin:miter;stroke-miterlimit:4;stroke-dasharray:none;stroke-opacity:1;marker-end:url(#marker1954)"
       d="M 83.910712,76.261904 H 108.10119"
       id="path1950"
       inkscape:connector-curvature="0" />
  </g>
</svg>
