<?xml version="1.0" encoding="UTF-8" standalone="no"?>
<!-- Created with Inkscape (http://www.inkscape.org/) -->

<svg
   xmlns:dc="http://purl.org/dc/elements/1.1/"
   xmlns:cc="http://creativecommons.org/ns#"
   xmlns:rdf="http://www.w3.org/1999/02/22-rdf-syntax-ns#"
   xmlns:svg="http://www.w3.org/2000/svg"
   xmlns="http://www.w3.org/2000/svg"
   xmlns:sodipodi="http://sodipodi.sourceforge.net/DTD/sodipodi-0.dtd"
   xmlns:inkscape="http://www.inkscape.org/namespaces/inkscape"
   width="394.65515mm"
   height="264.36093mm"
   viewBox="0 0 394.65515 264.36093"
   version="1.1"
   id="svg8"
   inkscape:version="0.92.4 (5da689c313, 2019-01-14)"
   sodipodi:docname="go_hugo.svg">
  <defs
     id="defs2" />
  <sodipodi:namedview
     id="base"
     pagecolor="#ffffff"
     bordercolor="#666666"
     borderopacity="1.0"
     inkscape:pageopacity="0.0"
     inkscape:pageshadow="2"
     inkscape:zoom="0.24748737"
     inkscape:cx="-664.10286"
     inkscape:cy="281.76193"
     inkscape:document-units="mm"
     inkscape:current-layer="layer1"
     showgrid="false"
     inkscape:window-width="1920"
     inkscape:window-height="1000"
     inkscape:window-x="-11"
     inkscape:window-y="-11"
     inkscape:window-maximized="1" />
  <metadata
     id="metadata5">
    <rdf:RDF>
      <cc:Work
         rdf:about="">
        <dc:format>image/svg+xml</dc:format>
        <dc:type
           rdf:resource="http://purl.org/dc/dcmitype/StillImage" />
        <dc:title></dc:title>
      </cc:Work>
    </rdf:RDF>
  </metadata>
  <g
     inkscape:label="Layer 1"
     inkscape:groupmode="layer"
     id="layer1"
     transform="translate(23.963854,96.606957)">
    <g
       id="g1191"
       transform="translate(-9.7309487)">
      <g
         transform="matrix(0.26458333,0,0,0.26458333,-14.494843,-96.797375)"
         id="g1012"
         style="fill-rule:evenodd;stroke-width:27">
        <path
           style="fill:#ebb951;stroke:#fcd804"
           inkscape:connector-curvature="0"
           d="m 1345.211,24.704 112.262,64.305 a 43,43 0 0 1 21.627,37.312 v 142.237 a 40,40 0 0 1 -20.702,35.037 l -120.886,66.584 a 42,42 0 0 1 -41.216,-0.389 l -106.242,-61.155 a 57,57 0 0 1 -28.564,-49.4 V 138.71 a 64,64 0 0 1 31.172,-54.939 l 98.01,-58.564 a 54,54 0 0 1 54.54,-0.503 z"
           id="path989" />
        <path
           style="fill:#33ba91;stroke:#00a88a"
           inkscape:connector-curvature="0"
           d="m 958.07,22.82 117.31,66.78 a 41,41 0 0 1 20.72,35.64 v 139.5 A 45,45 0 0 1 1073,304.06 L 955.68,369.4 a 44,44 0 0 1 -43.54,-0.41 l -105.82,-61.6 a 56,56 0 0 1 -27.83,-48.4 V 140.07 a 68,68 0 0 1 33.23,-58.44 l 98.06,-58.35 a 48,48 0 0 1 48.3,-0.46 z"
           id="path991" />
        <path
           style="fill:#0594cb;stroke:#0083c0"
           inkscape:connector-curvature="0"
           d="m 575.26,20.97 117.23,68.9 a 40,40 0 0 1 19.73,34.27 l 0.73,138.67 a 48,48 0 0 1 -24.64,42.2 L 573.18,369.12 A 45,45 0 0 1 528.65,368.7 L 422.82,307.1 A 55,55 0 0 1 395.49,259.57 V 136.52 a 63,63 0 0 1 29.87,-53.59 l 99.3,-61.4 a 49,49 0 0 1 50.6,-0.56 z"
           id="path993" />
        <path
           style="fill:#ff4088;stroke:#c9177e"
           inkscape:connector-curvature="0"
           d="m 195.81,24.13 114.41,66.54 a 44,44 0 0 1 21.88,38.04 v 136.43 a 48,48 0 0 1 -24.45,41.82 L 194.1,370.9 a 49,49 0 0 1 -48.48,-0.23 L 41.05,310.48 A 53,53 0 0 1 14.49,264.55 V 135.08 a 55,55 0 0 1 26.1,-46.8 l 102.8,-63.46 a 51,51 0 0 1 52.42,-0.69 z"
           id="path995" />
        <path
           style="fill:#ffffff"
           inkscape:connector-curvature="0"
           d="m 1320.72,89.15 c 58.79,0 106.52,47.73 106.52,106.51 0,58.8 -47.73,106.52 -106.52,106.52 -58.78,0 -106.52,-47.73 -106.52,-106.52 0,-58.78 47.74,-106.51 106.52,-106.51 z m 0,39.57 c 36.95,0 66.94,30 66.94,66.94 a 66.97,66.97 0 0 1 -66.94,66.94 c -36.95,0 -66.94,-29.99 -66.94,-66.94 a 66.97,66.97 0 0 1 66.93,-66.94 z m -283.8,65.31 c 0,47.18 -8.94,60.93 -26.81,80.58 -17.87,19.65 -41.57,27.57 -71.1,27.57 -27,0 -48.75,-9.58 -67.61,-26.23 -20.88,-18.45 -36.08,-47.04 -36.08,-78.95 0,-31.37 11.72,-58.48 32.49,-78.67 18.22,-17.67 45.34,-29.18 73.3,-29.18 33.77,0 68.83,15.98 90.44,47.53 L 999.82,163.5 C 986.37,138.47 966.88,130.04 939,129.24 c -30.83,-0.88 -64.77,28.53 -62.25,67.75 1.4,21.94 11.65,59.65 60.96,66.57 25.9,3.63 55.36,-24.02 55.36,-39.04 H 944.4 v -37.5 h 92.5 V 194 Z M 474.32,99.38 h 42.29 v 112.17 c 0,17.8 0.49,29.33 1.47,34.61 1.69,8.48 4.81,14.37 11.17,19.5 6.37,5.13 13.8,6.59 24.84,6.59 11.2,0 14.96,-1.74 20.66,-6.6 5.69,-4.85 9.12,-9.46 10.28,-16.53 1.15,-7.07 3.07,-18.8 3.07,-35.18 V 99.38 h 42.28 v 108.78 c 0,24.86 -1.07,42.43 -3.21,52.69 -2.14,10.27 -6.08,18.93 -11.82,26 -5.74,7.06 -13.42,12.69 -23.03,16.88 -9.62,4.19 -22.16,6.28 -37.65,6.28 -18.7,0 -32.87,-2.28 -42.52,-6.85 -9.66,-4.57 -17.3,-10.5 -22.9,-17.8 -5.61,-7.3 -9.3,-14.95 -11.08,-22.96 -2.58,-11.86 -3.88,-29.38 -3.88,-52.55 V 99.38 Z M 93.91,299.92 V 92.7 h 43.35 v 75.48 h 71.92 V 92.7 h 43.48 v 207.22 h -43.48 v -90.61 h -71.92 v 90.61 z"
           id="path997" />
      </g>
    </g>
    <g
       id="g1183"
       transform="translate(2.1441859,-25.559451)">
      <g
         transform="matrix(2.1062725,0,0,2.1062725,267.19748,58.489779)"
         id="g924">
        <g
           id="g820">
          <path
             style="fill:#f6d2a2"
             inkscape:connector-curvature="0"
             d="m 9.11,34.63 c 0.09,1.89 2,1 2.83,0.42 0.83,-0.58 1,-0.09 1.12,-1.2 a 18.13,18.13 0 0 0 0.09,-2.18 5.35,5.35 0 0 0 -3.57,0.91 c -0.52,0.38 -1.49,1.58 -0.48,2"
             transform="translate(-8.49)"
             id="path816" />
          <path
             style="fill:#010101"
             inkscape:connector-curvature="0"
             d="m 10.09,36 a 1.2,1.2 0 0 1 -0.54,-0.12 1.24,1.24 0 0 1 -0.62,-1.1 0.82,0.82 0 0 1 -0.45,-0.65 2.3,2.3 0 0 1 1,-1.66 5.5,5.5 0 0 1 3.69,-0.94 h 0.15 v 0.15 a 13,13 0 0 1 -0.05,1.71 c 0,0.17 0,0.33 0,0.5 -0.05,0.78 -0.2,0.9 -0.6,1 a 2.23,2.23 0 0 0 -0.6,0.29 4.09,4.09 0 0 1 -1.98,0.82 z m 2.54,-4.13 a 5,5 0 0 0 -2.94,0.9 2,2 0 0 0 -0.84,1.34 0.5,0.5 0 0 0 0.34,0.41 h 0.1 v 0.11 a 1,1 0 0 0 0.42,0.9 2.62,2.62 0 0 0 2.13,-0.62 2.58,2.58 0 0 1 0.68,-0.34 c 0.26,-0.09 0.32,-0.11 0.36,-0.73 0,-0.17 0,-0.33 0,-0.5 a 14,14 0 0 0 0.06,-1.5 h -0.31 z"
             transform="translate(-8.49)"
             id="path818" />
        </g>
        <g
           id="g826">
          <path
             style="fill:#c7b199"
             inkscape:connector-curvature="0"
             d="M 9.11,34.63 A 1.49,1.49 0 0 0 9.86,34.21"
             transform="translate(-8.49)"
             id="path822" />
          <path
             style="fill:#010101"
             inkscape:connector-curvature="0"
             d="M 9.11,34.81 A 0.18343936,0.18343936 0 0 1 9,34.46 H 9.12 A 1.08,1.08 0 0 0 9.67,34.14 0.18200275,0.18200275 0 1 1 9.96,34.36 1.4,1.4 0 0 1 9.24,34.8 H 9.12 9.11 Z"
             transform="translate(-8.49)"
             id="path824" />
        </g>
        <g
           id="g832">
          <path
             style="fill:#74cddd"
             inkscape:connector-curvature="0"
             d="m 13.47,12.14 c -7.23,-2 -1.85,-11.23 4,-7.45 z"
             transform="translate(-8.49)"
             id="path828" />
          <path
             style="fill:#010101"
             inkscape:connector-curvature="0"
             d="M 13.56,12.35 H 13.42 C 11.36,11.77 10.09,10.55 9.85,8.92 a 4.79,4.79 0 0 1 2.23,-4.52 4.84,4.84 0 0 1 5.44,0.18 l 0.14,0.09 z m 1,-8.38 a 4.23,4.23 0 0 0 -2.31,0.69 4.42,4.42 0 0 0 -2.07,4.17 c 0.22,1.45 1.34,2.55 3.17,3.1 l 3.8,-7.17 A 5,5 0 0 0 14.59,4 Z"
             transform="translate(-8.49)"
             id="path830" />
        </g>
        <g
           id="g838">
          <path
             style="fill:#74cddd"
             inkscape:connector-curvature="0"
             d="m 45.59,4 c 5.72,-4 10.89,5 4.24,7.33 z"
             transform="translate(-8.49)"
             id="path834" />
          <path
             style="fill:#010101"
             inkscape:connector-curvature="0"
             d="m 49.75,11.55 -4.4,-7.6 0.13,-0.09 a 4.72,4.72 0 0 1 5.25,-0.44 4.85,4.85 0 0 1 2.39,4.48 c -0.1,1 -0.64,2.71 -3.23,3.6 z m -3.92,-7.5 4.08,7.06 A 3.91,3.91 0 0 0 52.76,7.87 4.48,4.48 0 0 0 50.55,3.72 4.25,4.25 0 0 0 45.83,4.05 Z"
             transform="translate(-8.49)"
             id="path836" />
        </g>
        <g
           id="g844">
          <path
             style="fill:#f6d2a2"
             inkscape:connector-curvature="0"
             d="m 46.82,57.87 c 1.45,0.9 4.11,3.62 1.93,4.94 -2.09,1.92 -3.27,-2.11 -5.11,-2.66 a 5.09,5.09 0 0 1 3.18,-2.28 z"
             transform="translate(-8.49)"
             id="path840" />
          <path
             style="fill:#010101"
             inkscape:connector-curvature="0"
             d="m 47.64,63.5 h -0.08 c -0.83,-0.05 -1.51,-0.86 -2.17,-1.63 a 4.66,4.66 0 0 0 -1.8,-1.55 L 43.35,60.25 43.5,60 a 5.31,5.31 0 0 1 3.29,-2.35 h 0.07 0.06 c 0.93,0.58 2.85,2.26 2.84,3.78 a 1.67,1.67 0 0 1 -0.9,1.45 1.81,1.81 0 0 1 -1.22,0.62 z m -3.72,-3.44 a 5.73,5.73 0 0 1 1.73,1.57 3.49,3.49 0 0 0 1.92,1.51 1.43,1.43 0 0 0 1,-0.47 v 0 a 1.32,1.32 0 0 0 0.74,-1.16 c 0,-1.22 -1.54,-2.75 -2.61,-3.44 a 4.7,4.7 0 0 0 -2.77,1.99 z"
             transform="translate(-8.49)"
             id="path842" />
        </g>
        <path
           style="fill:#010101"
           inkscape:connector-curvature="0"
           d="M 48.75,63 A 0.18,0.18 0 0 1 48.59,62.9 6.67,6.67 0 0 1 48.31,62.22 3,3 0 0 0 47.65,61 a 0.18034689,0.18034689 0 1 1 0.25,-0.26 3.31,3.31 0 0 1 0.74,1.32 6.41,6.41 0 0 0 0.27,0.64 0.18,0.18 0 0 1 -0.08,0.24 z"
           transform="translate(-8.49)"
           id="path846" />
        <g
           id="g852">
          <path
             style="fill:#f6d2a2"
             inkscape:connector-curvature="0"
             d="m 20.85,60.94 c -1.71,0.26 -2.67,1.8 -4.09,2.58 a 1.24,1.24 0 0 1 -2,-0.47 0.65,0.65 0 0 1 -0.52,-0.24 c -1.24,-2 1.29,-3.39 2.62,-4.37 1.87,-0.36 3.02,1.23 3.99,2.5 z"
             transform="translate(-8.49)"
             id="path848" />
          <path
             style="fill:#010101"
             inkscape:connector-curvature="0"
             d="m 15.86,64 a 1.22,1.22 0 0 1 -0.32,0 1.48,1.48 0 0 1 -0.87,-0.75 v 0 a 0.6,0.6 0 0 1 -0.49,-0.26 v 0 c -1.2,-1.89 0.84,-3.32 2.19,-4.27 l 0.47,-0.34 v 0 0 c 1.89,-0.38 3.09,1.18 4.05,2.44 l 0.27,0.36 h -0.3 a 5.17,5.17 0 0 0 -2.53,1.45 9.19,9.19 0 0 1 -1.5,1.12 2,2 0 0 1 -0.97,0.25 z m -1.2,-1.16 a 0.49,0.49 0 0 1 0.21,0 h 0.05 L 15,63 a 1.16,1.16 0 0 0 0.67,0.61 1.37,1.37 0 0 0 1,-0.24 8.93,8.93 0 0 0 1.45,-1.08 6,6 0 0 1 2.41,-1.47 c -0.92,-1.2 -2,-2.5 -3.57,-2.2 l -0.45,0.32 c -1.38,1 -3.09,2.18 -2.1,3.77 a 0.29,0.29 0 0 0 0.21,0.14 v 0 z"
             transform="translate(-8.49)"
             id="path850" />
        </g>
        <path
           style="fill:#010101"
           inkscape:connector-curvature="0"
           d="m 14.79,63.24 v 0 A 0.18,0.18 0 0 1 14.61,63 a 2.74,2.74 0 0 1 0.58,-1.31 4.22,4.22 0 0 0 0.38,-0.63 0.18124569,0.18124569 0 0 1 0.33,0.15 4.56,4.56 0 0 1 -0.41,0.69 2.43,2.43 0 0 0 -0.49,1.17 0.18,0.18 0 0 1 -0.21,0.17 z"
           transform="translate(-8.49)"
           id="path854" />
        <path
           style="fill:#010101"
           inkscape:connector-curvature="0"
           d="M 13.77,9.6 C 12.77,9.1 12.12,8.41 12.7,7.31 13.28,6.21 14.24,6.4 15.2,6.9 Z"
           transform="translate(-8.49)"
           id="path856" />
        <path
           style="fill:#010101"
           inkscape:connector-curvature="0"
           d="m 48.32,8.64 c 1,-0.5 1.65,-1.19 1.07,-2.29 -0.58,-1.1 -1.54,-0.91 -2.5,-0.41 z"
           transform="translate(-8.49)"
           id="path858" />
        <g
           id="g864">
          <path
             style="fill:#f6d2a2"
             inkscape:connector-curvature="0"
             d="m 54.89,34.39 c -0.09,1.89 -2,1 -2.83,0.42 -0.83,-0.58 -1,-0.09 -1.12,-1.2 a 18.13,18.13 0 0 1 -0.09,-2.18 5.35,5.35 0 0 1 3.57,0.91 c 0.52,0.38 1.49,1.58 0.48,2"
             transform="translate(-8.49)"
             id="path860" />
          <path
             style="fill:#010101"
             inkscape:connector-curvature="0"
             d="M 53.91,35.72 A 4.09,4.09 0 0 1 52,35 2.23,2.23 0 0 0 51.4,34.71 c -0.4,-0.14 -0.55,-0.26 -0.6,-1 0,-0.17 0,-0.33 0,-0.5 A 13,13 0 0 1 50.75,31.5 v -0.24 h 0.15 a 5.5,5.5 0 0 1 3.69,0.94 2.3,2.3 0 0 1 1,1.66 0.82,0.82 0 0 1 -0.45,0.65 1.24,1.24 0 0 1 -0.62,1.1 1.21,1.21 0 0 1 -0.61,0.11 z M 51,31.6 a 14.05,14.05 0 0 0 0.06,1.5 c 0,0.17 0,0.33 0,0.5 0,0.61 0.09,0.63 0.36,0.73 a 2.58,2.58 0 0 1 0.68,0.34 2.61,2.61 0 0 0 2.13,0.62 1,1 0 0 0 0.42,-0.9 v -0.12 h 0.1 A 0.5,0.5 0 0 0 55.09,33.86 2,2 0 0 0 54.25,32.52 5.1,5.1 0 0 0 51,31.6 Z"
             transform="translate(-8.49)"
             id="path862" />
        </g>
        <g
           id="g870">
          <path
             style="fill:#c7b199"
             inkscape:connector-curvature="0"
             d="M 54.89,34.39 A 1.49,1.49 0 0 1 54.14,34"
             transform="translate(-8.49)"
             id="path866" />
          <path
             style="fill:#010101"
             inkscape:connector-curvature="0"
             d="M 54.89,34.57 H 54.82 54.7 a 1.4,1.4 0 0 1 -0.7,-0.5 0.18200275,0.18200275 0 1 1 0.29,-0.22 1.08,1.08 0 0 0 0.55,0.32 h 0.12 a 0.20303941,0.20303941 0 0 1 -0.07,0.4 z"
             transform="translate(-8.49)"
             id="path868" />
        </g>
        <g
           id="g876">
          <path
             style="fill:#74cddd"
             inkscape:connector-curvature="0"
             d="m 31.28,0.18 c 7.24,0 14,1 17.56,8 3.17,7.79 2,16.2 2.53,24.43 0.42,7.07 1.34,15.24 -1.94,21.8 C 46,61.29 37.34,63 30.24,62.77 c -5.58,-0.2 -12.32,-2 -15.47,-7.12 -3.7,-6 -1.95,-14.88 -1.68,-21.53 0.32,-7.88 -2.14,-15.79 0.45,-23.51 2.69,-8 9.93,-9.81 17.73,-10.43"
             transform="translate(-8.49)"
             id="path872" />
        </g>
        <g
           id="g882">
          <path
             style="fill:#ffffff"
             inkscape:connector-curvature="0"
             d="m 32.55,9.89 c 1.3,7.55 13.64,5.56 11.87,-2.06 C 42.83,1 32.12,2.89 32.55,9.89"
             transform="translate(-8.49)"
             id="path878" />
          <path
             style="fill:#010101"
             inkscape:connector-curvature="0"
             d="M 38.42,14.82 A 6.91,6.91 0 0 1 36.16,14.45 5.59,5.59 0 0 1 32.38,9.92 v 0 a 5.76,5.76 0 0 1 1.56,-4.44 6.81,6.81 0 0 1 4,-2 6.4,6.4 0 0 1 4.06,0.7 5.45,5.45 0 0 1 2.59,3.61 5.28,5.28 0 0 1 -1.54,5.36 7,7 0 0 1 -4.63,1.67 z M 32.73,9.87 a 5.25,5.25 0 0 0 3.55,4.25 6.83,6.83 0 0 0 6.55,-1.24 5,5 0 0 0 1.43,-5 A 5.34,5.34 0 0 0 38,3.82 5.77,5.77 0 0 0 32.73,9.87 Z"
             transform="translate(-8.49)"
             id="path880" />
        </g>
        <g
           id="g888">
          <path
             style="fill:#ffffff"
             inkscape:connector-curvature="0"
             d="M 17.8,11.12 C 19.48,17.69 30,16 29.61,9.41 29.14,1.51 16.19,3 17.8,11.12"
             transform="translate(-8.49)"
             id="path884" />
          <path
             style="fill:#010101"
             inkscape:connector-curvature="0"
             d="M 23.42,15.45 A 6.46,6.46 0 0 1 20.35,14.7 5.45,5.45 0 0 1 17.64,11.15 v 0 a 5.51,5.51 0 0 1 1.88,-5.65 7.1,7.1 0 0 1 7.06,-0.9 5.34,5.34 0 0 1 3.2,4.8 c 0.21,3.5 -2.57,5.54 -5.23,6 a 7.31,7.31 0 0 1 -1.13,0.05 z M 18,11.08 a 5.46,5.46 0 0 0 6.53,4 c 2.52,-0.4 5.15,-2.32 4.95,-5.61 a 5,5 0 0 0 -3,-4.52 6.75,6.75 0 0 0 -6.71,0.86 5.19,5.19 0 0 0 -1.77,5.27 z"
             transform="translate(-8.49)"
             id="path886" />
        </g>
        <g
           id="g894">
          <path
             style="fill:#ffffff"
             inkscape:connector-curvature="0"
             d="m 34,19 a 17,17 0 0 1 0,3.13 2,2 0 0 1 -1.17,0.72 1.72,1.72 0 0 1 -1.31,-1 22.22,22.22 0 0 1 0.09,-3.54 z"
             transform="translate(-8.49)"
             id="path890" />
          <path
             style="fill:#010101"
             inkscape:connector-curvature="0"
             d="m 32.94,23 h -0.05 a 1.89,1.89 0 0 1 -1.45,-1.13 v 0 a 11.88,11.88 0 0 1 0,-2.43 c 0,-0.37 0.06,-0.76 0.07,-1.14 V 18 l 2.7,0.83 V 19 c 0,0.32 0,0.66 0.05,1 a 8.57,8.57 0 0 1 0,2.15 v 0.05 a 1.5,1.5 0 0 1 -0.95,0.68 L 33,23 Z m -1.16,-1.26 a 1.53,1.53 0 0 0 1.12,0.89 l 0.28,-0.11 a 1.2,1.2 0 0 0 0.73,-0.52 8.43,8.43 0 0 0 0,-2 c 0,-0.31 0,-0.61 -0.05,-0.91 l -2,-0.61 c 0,0.31 0,0.62 -0.06,0.92 a 11.54,11.54 0 0 0 -0.03,2.33 z"
             transform="translate(-8.49)"
             id="path892" />
        </g>
        <g
           id="g900">
          <ellipse
             style="fill:#010101"
             cx="12.21"
             cy="10.04"
             rx="1.78"
             ry="1.9299999"
             id="ellipse896" />
          <ellipse
             style="fill:#ffffff"
             cx="13.02"
             cy="10.48"
             rx="0.41999999"
             ry="0.49000001"
             id="ellipse898" />
        </g>
        <g
           id="g906">
          <ellipse
             style="fill:#010101"
             cx="27.110001"
             cy="9.5600004"
             rx="1.75"
             ry="1.9299999"
             id="ellipse902" />
          <ellipse
             style="fill:#ffffff"
             cx="27.9"
             cy="10"
             rx="0.41"
             ry="0.49000001"
             id="ellipse904" />
        </g>
        <g
           id="g912">
          <path
             style="fill:#ffffff"
             inkscape:connector-curvature="0"
             d="m 29,18.85 c -0.78,1.88 0.43,5.64 2.54,2.87 a 22.22,22.22 0 0 1 0.09,-3.54 z"
             transform="translate(-8.49)"
             id="path908" />
          <path
             style="fill:#010101"
             inkscape:connector-curvature="0"
             d="m 30.09,22.89 a 1,1 0 0 1 -0.52,-0.14 c -0.85,-0.49 -1.38,-2.5 -0.78,-4 v -0.08 l 3,-0.76 v 0.24 c 0,0.39 0,0.78 -0.07,1.15 a 11.43,11.43 0 0 0 0,2.36 v 0.07 0.06 a 2.11,2.11 0 0 1 -1.63,1.1 z M 29.1,19 c -0.43,1.17 -0.09,3 0.66,3.43 0.54,0.31 1.14,-0.23 1.56,-0.77 a 12.23,12.23 0 0 1 0,-2.36 c 0,-0.29 0,-0.6 0.06,-0.9 z"
             transform="translate(-8.49)"
             id="path910" />
        </g>
        <g
           id="g922">
          <g
             id="g918">
            <path
               style="fill:#f6d2a2"
               inkscape:connector-curvature="0"
               d="m 29.23,15.23 a 2.29,2.29 0 0 0 -1.88,3.2 c 1,1.8 3.22,-0.16 4.6,0 1.59,0 2.9,1.68 4.18,0.3 1.42,-1.54 -0.61,-3 -2.2,-3.71 z"
               transform="translate(-8.49)"
               id="path914" />
            <path
               style="fill:#231f20"
               inkscape:connector-curvature="0"
               d="m 35,19.49 a 4,4 0 0 1 -1.46,-0.41 4.41,4.41 0 0 0 -1.58,-0.44 v 0 A 4,4 0 0 0 30.3,19 c -1.12,0.39 -2.39,0.83 -3.11,-0.46 a 2.16,2.16 0 0 1 0,-2.1 2.56,2.56 0 0 1 2,-1.37 v 0 L 34,14.86 v 0 c 1.18,0.5 2.53,1.41 2.76,2.47 A 1.91,1.91 0 0 1 35,19.49 Z m -3,-1.21 a 4.7,4.7 0 0 1 1.7,0.47 c 0.9,0.38 1.61,0.67 2.33,-0.11 a 1.33,1.33 0 0 0 0.41,-1.21 c -0.2,-0.92 -1.47,-1.76 -2.51,-2.2 l -4.65,0.19 a 2.22,2.22 0 0 0 -1.7,1.18 1.81,1.81 0 0 0 0,1.75 c 0.57,1 1.59,0.67 2.68,0.3 A 4.24,4.24 0 0 1 32,18.28 Z"
               transform="translate(-8.49)"
               id="path916" />
          </g>
          <path
             style="fill:#010101"
             inkscape:connector-curvature="0"
             d="m 29,15.16 c -0.11,-2.5 4.67,-2.82 5.23,-0.72 0.56,2.1 -5,2.58 -5.23,0.72 z"
             transform="translate(-8.49)"
             id="path920" />
        </g>
      </g>
      <g
         id="g1105">
        <path
           id="path874"
           transform="matrix(2.1062725,0,0,2.1062725,249.31523,58.489779)"
           d="m 31.47,63 h -1.24 a 26.39,26.39 0 0 1 -8.71,-1.74 13.93,13.93 0 0 1 -6.91,-5.47 c -3,-4.84 -2.46,-11.52 -2,-17.42 0.12,-1.48 0.23,-2.89 0.28,-4.21 a 67.83,67.83 0 0 0 -0.36,-8.38 c -0.42,-5 -0.86,-10.17 0.82,-15.18 a 13.28,13.28 0 0 1 7,-8.09 c 2.7,-1.32 6,-2.08 10.85,-2.46 v 0 C 38.34,0 45.38,1 49,8.09 v 0 c 2.32,5.7 2.35,11.82 2.39,17.74 0,2.22 0,4.51 0.16,6.75 0,0.68 0.08,1.37 0.13,2.06 0.42,6.49 0.9,13.86 -2.09,19.82 C 45.85,61.92 36.45,63 31.47,63 Z M 31.28,0.36 C 23.75,1 16.41,2.62 13.71,10.67 c -1.66,4.94 -1.22,10.07 -0.81,15 a 68.09,68.09 0 0 1 0.36,8.42 c -0.05,1.33 -0.17,2.74 -0.28,4.23 -0.46,5.84 -1,12.47 1.93,17.2 1.23,2 5.19,6.67 15.33,7 4.39,0.16 15,-0.34 19,-8.28 2.94,-5.88 2.47,-13.19 2.05,-19.64 0,-0.7 -0.09,-1.39 -0.13,-2.06 C 51.05,30.36 51,28.06 51,25.84 51,19.96 50.94,13.84 48.64,8.24 A 12.87,12.87 0 0 0 41.35,1.73 29.9,29.9 0 0 0 31.28,0.36 Z"
           inkscape:connector-curvature="0"
           style="fill:#010101" />
        <g
           id="g1053"
           transform="matrix(1.1598725,0,0,1.1598725,-52.612705,-8.8628323)">
	<g
   id="g1022">
		<g
   id="g1020">
			<g
   id="g1018">
				<path
   id="path1016"
   d="m 40.2,101.1 c -0.4,0 -0.5,-0.2 -0.3,-0.5 L 42,97.9 c 0.2,-0.3 0.7,-0.5 1.1,-0.5 h 35.7 c 0.4,0 0.5,0.3 0.3,0.6 l -1.7,2.6 c -0.2,0.3 -0.7,0.6 -1,0.6 z"
   class="st3"
   inkscape:connector-curvature="0"
   style="fill:#ce3262" />

			</g>

		</g>

	</g>

	<g
   id="g1030">
		<g
   id="g1028">
			<g
   id="g1026">
				<path
   id="path1024"
   d="m 25.1,110.3 c -0.4,0 -0.5,-0.2 -0.3,-0.5 l 2.1,-2.7 c 0.2,-0.3 0.7,-0.5 1.1,-0.5 h 45.6 c 0.4,0 0.6,0.3 0.5,0.6 l -0.8,2.4 c -0.1,0.4 -0.5,0.6 -0.9,0.6 z"
   class="st3"
   inkscape:connector-curvature="0"
   style="fill:#ce3262" />

			</g>

		</g>

	</g>

	<g
   id="g1038">
		<g
   id="g1036">
			<g
   id="g1034">
				<path
   id="path1032"
   d="m 49.3,119.5 c -0.4,0 -0.5,-0.3 -0.3,-0.6 l 1.4,-2.5 c 0.2,-0.3 0.6,-0.6 1,-0.6 h 20 c 0.4,0 0.6,0.3 0.6,0.7 l -0.2,2.4 c 0,0.4 -0.4,0.7 -0.7,0.7 z"
   class="st3"
   inkscape:connector-curvature="0"
   style="fill:#ce3262" />

			</g>

		</g>

	</g>

	<g
   id="g1051">
		<g
   id="CXHf1q_4_">
			<g
   id="g1048">
				<g
   id="g1042">
					<path
   id="path1040"
   d="m 153.1,99.3 c -6.3,1.6 -10.6,2.8 -16.8,4.4 -1.5,0.4 -1.6,0.5 -2.9,-1 -1.5,-1.7 -2.6,-2.8 -4.7,-3.8 -6.3,-3.1 -12.4,-2.2 -18.1,1.5 -6.8,4.4 -10.3,10.9 -10.2,19 0.1,8 5.6,14.6 13.5,15.7 6.8,0.9 12.5,-1.5 17,-6.6 0.9,-1.1 1.7,-2.3 2.7,-3.7 -3.6,0 -8.1,0 -19.3,0 -2.1,0 -2.6,-1.3 -1.9,-3 1.3,-3.1 3.7,-8.3 5.1,-10.9 0.3,-0.6 1,-1.6 2.5,-1.6 5.1,0 23.9,0 36.4,0 -0.2,2.7 -0.2,5.4 -0.6,8.1 -1.1,7.2 -3.8,13.8 -8.2,19.6 -7.2,9.5 -16.6,15.4 -28.5,17 -9.8,1.3 -18.9,-0.6 -26.9,-6.6 -7.4,-5.6 -11.6,-13 -12.7,-22.2 -1.3,-10.9 1.9,-20.7 8.5,-29.3 7.1,-9.3 16.5,-15.2 28,-17.3 9.4,-1.7 18.4,-0.6 26.5,4.9 5.3,3.5 9.1,8.3 11.6,14.1 0.6,0.9 0.2,1.4 -1,1.7 z"
   class="st3"
   inkscape:connector-curvature="0"
   style="fill:#ce3262" />

				</g>

				<g
   id="g1046">
					<path
   id="path1044"
   d="m 186.2,154.6 c -9.1,-0.2 -17.4,-2.8 -24.4,-8.8 -5.9,-5.1 -9.6,-11.6 -10.8,-19.3 -1.8,-11.3 1.3,-21.3 8.1,-30.2 7.3,-9.6 16.1,-14.6 28,-16.7 10.2,-1.8 19.8,-0.8 28.5,5.1 7.9,5.4 12.8,12.7 14.1,22.3 1.7,13.5 -2.2,24.5 -11.5,33.9 -6.6,6.7 -14.7,10.9 -24,12.8 -2.7,0.5 -5.4,0.6 -8,0.9 z M 210,114.2 c -0.1,-1.3 -0.1,-2.3 -0.3,-3.3 -1.8,-9.9 -10.9,-15.5 -20.4,-13.3 -9.3,2.1 -15.3,8 -17.5,17.4 -1.8,7.8 2,15.7 9.2,18.9 5.5,2.4 11,2.1 16.3,-0.6 7.9,-4.1 12.2,-10.5 12.7,-19.1 z"
   class="st3"
   inkscape:connector-curvature="0"
   style="fill:#ce3262" />

				</g>

			</g>

		</g>

	</g>

</g>
      </g>
    </g>
  </g>
  <style
     id="style1014"
     type="text/css">
	.st0{fill:#2DBCAF;}
	.st1{fill:#5DC9E1;}
	.st2{fill:#FDDD00;}
	.st3{fill:#CE3262;}
	.st4{fill:#00ACD7;}
	.st5{fill:#FFFFFF;}
</style>
</svg>
